<svg width="475" height="270" viewBox="0 0 475 270" fill="none" xmlns="http://www.w3.org/2000/svg">
<path d="M198.773 165.096C198.005 165.096 197.461 164.904 197.141 164.52C196.885 164.136 196.757 163.592 196.757 162.888C196.757 161.48 197.077 159.304 197.717 156.36C198.421 153.672 198.773 151.464 198.773 149.736C198.773 144.744 198.389 140.936 197.621 138.312H194.645C192.021 138.312 188.597 138.248 184.373 138.12L175.349 138.024H162.389L162.581 141.768C162.581 144.712 163.061 148.392 164.021 152.808C164.341 154.6 164.629 156.424 164.885 158.28C165.205 160.072 165.365 161.704 165.365 163.176V164.04C164.725 164.68 164.053 165 163.349 165C161.685 165 160.373 163.048 159.413 159.144C158.453 155.176 157.973 150.408 157.973 144.84C157.973 142.6 158.069 140.392 158.261 138.216C156.853 138.152 155.893 137.928 155.381 137.544C154.869 137.096 154.613 136.424 154.613 135.528C154.613 134.824 154.805 134.344 155.189 134.088C155.637 133.832 156.405 133.64 157.493 133.512L157.397 130.92L157.685 126.504C158.133 119.272 158.805 113.384 159.701 108.84C160.597 104.296 162.517 100.36 165.461 97.032C168.405 93.704 172.821 92.04 178.709 92.04C185.429 92.04 190.677 95.656 194.453 102.888C198.229 110.12 200.789 118.184 202.133 127.08C203.477 135.976 204.149 143.624 204.149 150.024C204.149 152.328 204.085 154.344 203.957 156.072C203.829 157.736 203.573 159.816 203.189 162.312C201.717 164.168 200.245 165.096 198.773 165.096ZM197.237 134.568C196.021 122.728 193.845 113.448 190.709 106.728C187.573 99.944 182.869 96.552 176.597 96.552C171.925 96.552 168.469 98.728 166.229 103.08C164.053 107.368 162.741 111.976 162.293 116.904C161.845 121.832 161.621 127.368 161.621 133.512L197.237 134.568ZM221.257 165C218.633 159.88 216.553 153.864 215.017 146.952C213.545 140.04 212.809 134.056 212.809 129C212.809 127.016 213.257 125.736 214.153 125.16C214.665 124.84 215.049 124.68 215.305 124.68C215.753 124.68 216.073 125.032 216.265 125.736C216.521 126.44 216.777 127.72 217.033 129.576L217.513 133.032C218.217 129.576 219.561 126.856 221.545 124.872C223.593 122.824 226.089 121.8 229.033 121.8C232.297 121.8 234.729 122.44 236.329 123.72C237.929 124.936 238.729 126.984 238.729 129.864C235.529 128.328 232.617 127.56 229.993 127.56C227.497 127.56 225.353 128.232 223.561 129.576C221.769 130.92 220.521 132.904 219.817 135.528C219.241 137.32 218.953 139.016 218.953 140.616C218.953 142.344 219.177 143.976 219.625 145.512C220.137 146.984 220.905 148.808 221.929 150.984C222.889 153.224 223.625 155.144 224.137 156.744C224.713 158.344 225.033 160.072 225.097 161.928C225.097 163.016 224.713 163.816 223.945 164.328C223.177 164.776 222.281 165 221.257 165ZM266.144 165.096C258.656 165.096 252.832 163.4 248.672 160.008C244.576 156.552 242.528 151.24 242.528 144.072C242.528 140.424 243.424 136.968 245.216 133.704C247.072 130.376 249.536 127.72 252.608 125.736C255.744 123.688 259.104 122.664 262.688 122.664C266.336 122.664 269.44 123.464 272 125.064C274.56 126.6 275.84 128.84 275.84 131.784C275.84 133.832 275.456 135.304 274.688 136.2C273.984 137.032 273.184 137.448 272.288 137.448C272.288 134.376 271.456 131.88 269.792 129.96C268.128 128.04 265.76 127.08 262.688 127.08C259.616 127.08 256.96 127.912 254.72 129.576C252.48 131.176 250.752 133.32 249.536 136.008C248.384 138.632 247.808 141.384 247.808 144.264C247.808 150.344 249.856 154.472 253.952 156.648C258.112 158.824 263.584 159.912 270.368 159.912C272.672 159.912 275.68 159.784 279.392 159.528C279.52 159.528 279.808 159.656 280.256 159.912C280.704 160.168 281.056 160.328 281.312 160.392V160.968C281.312 162.824 279.68 163.976 276.416 164.424C273.152 164.872 269.728 165.096 266.144 165.096ZM309.856 165C303.2 165 297.408 163.848 292.48 161.544C287.616 159.176 285.184 155.048 285.184 149.16C285.184 147.048 285.824 145 287.104 143.016C288.384 141.032 290.272 139.432 292.768 138.216C295.264 136.936 298.304 136.296 301.888 136.296C304.64 136.296 306.976 136.424 308.896 136.68C310.816 136.936 313.024 137.64 315.52 138.792C318.016 139.944 320.608 141.768 323.296 144.264C322.272 139.848 320.736 135.976 318.688 132.648C316.64 129.32 314.336 126.76 311.776 124.968C309.28 123.112 306.816 122.184 304.384 122.184C303.232 122.184 302.144 122.408 301.12 122.856C300.16 123.24 298.976 123.816 297.568 124.584C295.968 125.608 294.784 126.12 294.016 126.12C293.696 126.12 293.408 126.024 293.152 125.832C292.96 125.576 292.864 125.288 292.864 124.968C292.864 122.408 293.984 120.424 296.224 119.016C298.528 117.608 301.312 116.968 304.576 117.096C309.056 117.352 313.152 119.272 316.864 122.856C320.576 126.376 323.488 130.76 325.6 136.008C327.776 141.256 328.864 146.408 328.864 151.464C328.864 152.296 328.8 153.48 328.672 155.016L325.6 154.824C323.168 149.896 320.032 146.408 316.192 144.36C312.416 142.248 308.608 141.192 304.768 141.192C299.84 141.192 296.32 141.928 294.208 143.4C292.096 144.872 291.04 147.016 291.04 149.832C291.04 152.776 292.512 155.144 295.456 156.936C298.4 158.728 302.176 159.624 306.784 159.624C309.344 159.624 311.392 159.496 312.928 159.24C314.464 158.92 316.064 158.504 317.728 157.992C319.072 157.544 320.256 157.224 321.28 157.032C322.304 156.84 323.616 156.744 325.216 156.744C327.008 156.744 328.128 156.872 328.576 157.128C329.088 157.384 329.344 157.96 329.344 158.856C329.344 159.496 328.032 160.296 325.408 161.256C322.784 162.216 319.84 163.08 316.576 163.848C313.312 164.616 311.072 165 309.856 165ZM353.444 164.904C350.436 164.904 347.812 163.88 345.572 161.832C343.396 159.784 341.732 157.128 340.58 153.864C339.492 150.6 338.948 147.208 338.948 143.688C338.948 137.544 340.228 132.36 342.788 128.136C345.412 123.912 349.38 121.8 354.692 121.8C357.892 121.8 360.676 122.376 363.044 123.528C365.476 124.616 368.644 126.472 372.548 129.096L375.044 130.824C374.724 128.712 374.244 126.28 373.604 123.528C372.964 120.776 372.548 118.888 372.356 117.864C371.268 112.872 370.468 109.16 369.956 106.728C369.508 104.232 369.284 102.024 369.284 100.104C369.284 96.712 370.244 95.016 372.164 95.016C372.868 96.552 373.7 99.848 374.66 104.904C375.62 109.896 376.836 116.744 378.308 125.448C379.844 134.664 381.188 142.184 382.34 148.008C383.492 153.832 384.452 157.48 385.22 158.952C385.22 160.424 384.132 161.16 381.956 161.16C380.292 161.16 379.14 160.2 378.5 158.28C377.924 156.36 377.572 153 377.444 148.2H376.676C373.988 153.064 370.5 157.064 366.212 160.2C361.924 163.336 357.668 164.904 353.444 164.904ZM354.692 160.2C357.316 160.2 360.132 159.112 363.14 156.936C366.212 154.696 368.804 152.008 370.916 148.872C373.028 145.672 374.084 142.792 374.084 140.232V137.352C367.492 130.44 361.412 126.984 355.844 126.984C351.94 126.984 348.932 128.424 346.82 131.304C344.708 134.12 343.652 137.832 343.652 142.44L343.748 144.456C344.132 149.32 345.22 153.16 347.012 155.976C348.804 158.792 351.364 160.2 354.692 160.2ZM397.366 165.096C395.894 165.096 394.71 162.952 393.814 158.664C392.918 154.312 392.342 150.568 392.086 147.432C391.83 144.296 391.478 139.336 391.03 132.552C390.966 131.464 390.934 130.056 390.934 128.328C390.934 126.152 391.094 124.648 391.414 123.816C391.798 122.984 392.406 122.568 393.238 122.568C393.942 122.568 394.486 122.728 394.87 123.048C395.318 123.304 395.702 123.752 396.022 124.392L395.926 128.232C395.926 132.328 396.118 136.2 396.502 139.848C396.95 143.496 397.622 148.392 398.518 154.536C399.03 157.224 399.382 159.432 399.574 161.16C399.702 162.056 399.542 162.952 399.094 163.848C398.646 164.68 398.07 165.096 397.366 165.096ZM394.966 112.296C393.558 112.296 392.502 111.752 391.798 110.664C391.158 109.576 390.838 108.232 390.838 106.632C390.838 105.928 390.87 105.416 390.934 105.096C390.87 104.072 391.446 103.56 392.662 103.56C393.558 103.56 394.454 103.784 395.35 104.232C396.31 104.616 396.598 104.904 396.214 105.096C396.854 106.76 397.174 108.072 397.174 109.032C397.174 109.864 396.982 110.536 396.598 111.048C396.214 111.496 395.67 111.912 394.966 112.296ZM432.856 165C426.2 165 420.408 163.848 415.48 161.544C410.616 159.176 408.184 155.048 408.184 149.16C408.184 147.048 408.824 145 410.104 143.016C411.384 141.032 413.272 139.432 415.768 138.216C418.264 136.936 421.304 136.296 424.888 136.296C427.64 136.296 429.976 136.424 431.896 136.68C433.816 136.936 436.024 137.64 438.52 138.792C441.016 139.944 443.608 141.768 446.296 144.264C445.272 139.848 443.736 135.976 441.688 132.648C439.64 129.32 437.336 126.76 434.776 124.968C432.28 123.112 429.816 122.184 427.384 122.184C426.232 122.184 425.144 122.408 424.12 122.856C423.16 123.24 421.976 123.816 420.568 124.584C418.968 125.608 417.784 126.12 417.016 126.12C416.696 126.12 416.408 126.024 416.152 125.832C415.96 125.576 415.864 125.288 415.864 124.968C415.864 122.408 416.984 120.424 419.224 119.016C421.528 117.608 424.312 116.968 427.576 117.096C432.056 117.352 436.152 119.272 439.864 122.856C443.576 126.376 446.488 130.76 448.6 136.008C450.776 141.256 451.864 146.408 451.864 151.464C451.864 152.296 451.8 153.48 451.672 155.016L448.6 154.824C446.168 149.896 443.032 146.408 439.192 144.36C435.416 142.248 431.608 141.192 427.768 141.192C422.84 141.192 419.32 141.928 417.208 143.4C415.096 144.872 414.04 147.016 414.04 149.832C414.04 152.776 415.512 155.144 418.456 156.936C421.4 158.728 425.176 159.624 429.784 159.624C432.344 159.624 434.392 159.496 435.928 159.24C437.464 158.92 439.064 158.504 440.728 157.992C442.072 157.544 443.256 157.224 444.28 157.032C445.304 156.84 446.616 156.744 448.216 156.744C450.008 156.744 451.128 156.872 451.576 157.128C452.088 157.384 452.344 157.96 452.344 158.856C452.344 159.496 451.032 160.296 448.408 161.256C445.784 162.216 442.84 163.08 439.576 163.848C436.312 164.616 434.072 165 432.856 165Z" fill="#FFCB00"/>
<path d="M138.51 106.95C138.23 106.2 137.94 105.46 137.64 104.73C137.53 104.47 137.43 104.21 137.32 103.95C127.49 80.69 109.72 72.94 101.43 70.52C100.73 70.44 100.32 70.33 100.32 70.33V70.38C94.0423 68.5527 87.5382 67.6202 81 67.61H80.71C74.03 67.61 67.29 68.58 60.95 70.48C36.47 77.72 26.64 97.32 23.35 106.25C23.31 106.63 23.24 106.86 23.24 106.86H23.25C21.06 112.74 19.71 118.9 19.36 124.99C18.43 140.79 21.2 156.71 33.94 167.7C40.99 173.78 49.76 177.91 58.8 180.14C62.24 181 71.12 182.97 80.43 182.97C89.74 182.97 99.48 181 102.92 180.14C111.96 177.91 120.73 173.78 127.79 167.7C140.52 156.71 143.29 140.8 142.37 124.99C142.01 118.93 140.67 112.81 138.51 106.95Z" fill="#E0E0E0"/>
<path d="M70.44 127.92C71.48 122.72 68.85 116.8 64.17 114.19C57.48 110.48 49.39 111.71 43.39 116.09C39.92 118.62 35.72 122.46 33.51 126.18C29.64 132.72 28.87 142.6 34.01 148.94C37.2 152.87 42.72 154.31 47.51 153.43C53.16 152.38 56.83 148.2 60.28 143.92C63.54 139.84 67.42 135.91 69.47 131.03C69.9 130.01 70.24 128.97 70.44 127.92ZM57.53 131.53C54 131.53 51.14 128.74 51.14 125.3C51.14 121.85 54 119.05 57.53 119.05C61.06 119.05 63.93 121.85 63.93 125.3C63.93 128.74 61.07 131.53 57.53 131.53ZM127.95 149.86C133.38 143.15 132.57 132.71 128.47 125.8C126.15 121.87 121.7 117.81 118.04 115.14C111.71 110.5 103.15 109.2 96.09 113.13C91.12 115.89 88.36 122.15 89.46 127.64C89.67 128.75 90.04 129.85 90.47 130.92C92.65 136.08 96.74 140.23 100.2 144.55C103.82 149.07 107.72 153.48 113.68 154.59C118.74 155.53 124.57 154 127.95 149.86ZM103.32 131.53C99.79 131.53 96.93 128.74 96.93 125.3C96.93 121.85 99.8 119.05 103.32 119.05C106.85 119.05 109.71 121.85 109.71 125.3C109.71 128.74 106.85 131.53 103.32 131.53ZM91.21 156.29C91.07 156.48 87.93 160.8 80.54 160.8C73.2 160.8 70.05 156.51 69.89 156.29C69.5445 155.787 69.0137 155.441 68.4139 155.329C67.8141 155.216 67.1942 155.346 66.69 155.69C66.183 156.034 65.8331 156.565 65.7169 157.167C65.6007 157.769 65.7276 158.392 66.07 158.9C66.25 159.17 70.61 165.42 80.53 165.42C90.46 165.42 94.83 159.16 95.01 158.9C95.72 157.85 95.46 156.43 94.41 155.71C93.38 154.99 91.94 155.26 91.21 156.29ZM80.55 152.27C86.09 152.27 90.59 148.65 90.59 144.18C90.59 139.71 86.09 136.09 80.55 136.09C75.01 136.09 70.52 139.71 70.52 144.18C70.52 148.65 75.01 152.27 80.55 152.27ZM137.32 103.95C137.26 103.81 137.21 103.67 137.15 103.53V102.51C137.34 101.39 138.2 100.54 138.85 99.64L139.25 99.1C140.17 97.73 140.89 96.24 141.52 94.72C144.46 87.72 144.54 79.9 140.84 74.17C138.22 70.12 127.87 59.61 111.54 68.5C107.26 70.83 103.3 70.74 101.44 70.52C109.72 72.94 127.49 80.7 137.32 103.95ZM60.95 70.48C60.48 70.62 60 70.76 59.53 70.91C58.61 71.11 53.82 71.93 48.51 69.04C32.18 60.16 21.82 70.66 19.2 74.71C18.07 76.47 17.23 78.59 16.79 80.61C15.98 84.44 16.3 88.7 17.48 92.43C18.11 94.43 19.04 96.3 20.02 98.16C20.65 99.39 21.31 100.61 22.12 101.75C23.44 103.6 23.46 105.36 23.36 106.25C26.64 97.32 36.47 77.72 60.95 70.48Z" fill="#2F2F2F"/>
</svg>
